<mxfile host="app.diagrams.net" modified="2023-09-19T20:02:24.665Z" agent="Mozilla/5.0 (Windows NT 10.0; Win64; x64) AppleWebKit/537.36 (KHTML, like Gecko) Chrome/117.0.0.0 Safari/537.36 Edg/117.0.2045.31" etag="CaHr05OKdj5pQS77Q3wR" version="21.7.5" type="github">
  <diagram name="PÃ¡gina-1" id="2T1-KVrXEfLsA2Gbn3-E">
    <mxGraphModel dx="325" dy="214" grid="1" gridSize="10" guides="1" tooltips="1" connect="1" arrows="1" fold="1" page="1" pageScale="1" pageWidth="1169" pageHeight="827" math="0" shadow="0">
      <root>
        <mxCell id="0" />
        <mxCell id="1" parent="0" />
        <mxCell id="KeggjCkR87lxun9Q_uiz-7" style="edgeStyle=orthogonalEdgeStyle;rounded=0;orthogonalLoop=1;jettySize=auto;html=1;exitX=0.5;exitY=1;exitDx=0;exitDy=0;entryX=0;entryY=0.75;entryDx=0;entryDy=0;" edge="1" parent="1" source="KeggjCkR87lxun9Q_uiz-1" target="KeggjCkR87lxun9Q_uiz-5">
          <mxGeometry relative="1" as="geometry" />
        </mxCell>
        <mxCell id="KeggjCkR87lxun9Q_uiz-8" style="edgeStyle=orthogonalEdgeStyle;rounded=0;orthogonalLoop=1;jettySize=auto;html=1;entryX=0;entryY=0.5;entryDx=0;entryDy=0;" edge="1" parent="1" source="KeggjCkR87lxun9Q_uiz-1" target="KeggjCkR87lxun9Q_uiz-4">
          <mxGeometry relative="1" as="geometry" />
        </mxCell>
        <mxCell id="KeggjCkR87lxun9Q_uiz-9" style="edgeStyle=orthogonalEdgeStyle;rounded=0;orthogonalLoop=1;jettySize=auto;html=1;entryX=-0.027;entryY=0.416;entryDx=0;entryDy=0;entryPerimeter=0;" edge="1" parent="1" source="KeggjCkR87lxun9Q_uiz-1" target="KeggjCkR87lxun9Q_uiz-2">
          <mxGeometry relative="1" as="geometry" />
        </mxCell>
        <mxCell id="KeggjCkR87lxun9Q_uiz-10" style="edgeStyle=orthogonalEdgeStyle;rounded=0;orthogonalLoop=1;jettySize=auto;html=1;entryX=0;entryY=0.5;entryDx=0;entryDy=0;exitX=0.75;exitY=0;exitDx=0;exitDy=0;" edge="1" parent="1" source="KeggjCkR87lxun9Q_uiz-1" target="KeggjCkR87lxun9Q_uiz-6">
          <mxGeometry relative="1" as="geometry">
            <Array as="points">
              <mxPoint x="610" y="180" />
              <mxPoint x="610" y="90" />
            </Array>
          </mxGeometry>
        </mxCell>
        <mxCell id="KeggjCkR87lxun9Q_uiz-1" value="API Gateway" style="rounded=1;whiteSpace=wrap;html=1;" vertex="1" parent="1">
          <mxGeometry x="580" y="130" width="70" height="190" as="geometry" />
        </mxCell>
        <mxCell id="KeggjCkR87lxun9Q_uiz-2" value="Catalog Service" style="rounded=1;whiteSpace=wrap;html=1;fillColor=#fa6800;fontColor=#000000;strokeColor=#C73500;" vertex="1" parent="1">
          <mxGeometry x="1000" y="140" width="120" height="60" as="geometry" />
        </mxCell>
        <mxCell id="KeggjCkR87lxun9Q_uiz-4" value="Basket Service" style="rounded=1;whiteSpace=wrap;html=1;fillColor=#0050ef;fontColor=#ffffff;strokeColor=#001DBC;" vertex="1" parent="1">
          <mxGeometry x="1000" y="240" width="120" height="60" as="geometry" />
        </mxCell>
        <mxCell id="KeggjCkR87lxun9Q_uiz-5" value="Pricing Service" style="rounded=1;whiteSpace=wrap;html=1;fillColor=#d80073;fontColor=#ffffff;strokeColor=#A50040;" vertex="1" parent="1">
          <mxGeometry x="1000" y="320" width="120" height="60" as="geometry" />
        </mxCell>
        <mxCell id="KeggjCkR87lxun9Q_uiz-6" value="Product Service" style="rounded=1;whiteSpace=wrap;html=1;fillColor=#008a00;strokeColor=#005700;fontColor=#ffffff;" vertex="1" parent="1">
          <mxGeometry x="1000" y="60" width="120" height="60" as="geometry" />
        </mxCell>
        <mxCell id="KeggjCkR87lxun9Q_uiz-17" style="edgeStyle=orthogonalEdgeStyle;rounded=0;orthogonalLoop=1;jettySize=auto;html=1;" edge="1" parent="1" source="KeggjCkR87lxun9Q_uiz-12" target="KeggjCkR87lxun9Q_uiz-15">
          <mxGeometry relative="1" as="geometry" />
        </mxCell>
        <mxCell id="KeggjCkR87lxun9Q_uiz-12" value="" style="sketch=0;pointerEvents=1;shadow=0;dashed=0;html=1;strokeColor=none;fillColor=#505050;labelPosition=center;verticalLabelPosition=bottom;verticalAlign=top;outlineConnect=0;align=center;shape=mxgraph.office.devices.cell_phone_iphone_standalone;" vertex="1" parent="1">
          <mxGeometry x="106.5" y="201" width="25" height="42" as="geometry" />
        </mxCell>
        <mxCell id="KeggjCkR87lxun9Q_uiz-16" style="edgeStyle=orthogonalEdgeStyle;rounded=0;orthogonalLoop=1;jettySize=auto;html=1;" edge="1" parent="1" source="KeggjCkR87lxun9Q_uiz-13" target="KeggjCkR87lxun9Q_uiz-15">
          <mxGeometry relative="1" as="geometry" />
        </mxCell>
        <mxCell id="KeggjCkR87lxun9Q_uiz-13" value="" style="sketch=0;pointerEvents=1;shadow=0;dashed=0;html=1;strokeColor=none;fillColor=#505050;labelPosition=center;verticalLabelPosition=bottom;verticalAlign=top;outlineConnect=0;align=center;shape=mxgraph.office.devices.lcd_monitor;" vertex="1" parent="1">
          <mxGeometry x="90" y="115" width="58" height="48" as="geometry" />
        </mxCell>
        <mxCell id="KeggjCkR87lxun9Q_uiz-18" style="edgeStyle=orthogonalEdgeStyle;rounded=0;orthogonalLoop=1;jettySize=auto;html=1;entryX=0.5;entryY=1;entryDx=0;entryDy=0;" edge="1" parent="1" source="KeggjCkR87lxun9Q_uiz-14" target="KeggjCkR87lxun9Q_uiz-15">
          <mxGeometry relative="1" as="geometry" />
        </mxCell>
        <mxCell id="KeggjCkR87lxun9Q_uiz-14" value="" style="sketch=0;pointerEvents=1;shadow=0;dashed=0;html=1;strokeColor=none;fillColor=#505050;labelPosition=center;verticalLabelPosition=bottom;verticalAlign=top;outlineConnect=0;align=center;shape=mxgraph.office.devices.tablet_ipad;" vertex="1" parent="1">
          <mxGeometry x="100" y="283" width="39" height="52" as="geometry" />
        </mxCell>
        <mxCell id="KeggjCkR87lxun9Q_uiz-19" style="edgeStyle=orthogonalEdgeStyle;rounded=0;orthogonalLoop=1;jettySize=auto;html=1;entryX=0.25;entryY=0;entryDx=0;entryDy=0;" edge="1" parent="1" source="KeggjCkR87lxun9Q_uiz-15" target="KeggjCkR87lxun9Q_uiz-1">
          <mxGeometry relative="1" as="geometry" />
        </mxCell>
        <mxCell id="KeggjCkR87lxun9Q_uiz-15" value="WebApp" style="rounded=1;whiteSpace=wrap;html=1;absoluteArcSize=1;arcSize=14;strokeWidth=2;" vertex="1" parent="1">
          <mxGeometry x="300" y="187" width="130" height="70" as="geometry" />
        </mxCell>
        <mxCell id="KeggjCkR87lxun9Q_uiz-23" value="" style="outlineConnect=0;dashed=0;verticalLabelPosition=bottom;verticalAlign=top;align=center;html=1;shape=mxgraph.aws3.cache_node;fillColor=#2E73B8;gradientColor=none;" vertex="1" parent="1">
          <mxGeometry x="620" y="290" width="20" height="20" as="geometry" />
        </mxCell>
        <mxCell id="KeggjCkR87lxun9Q_uiz-24" value="" style="outlineConnect=0;dashed=0;verticalLabelPosition=bottom;verticalAlign=top;align=center;html=1;shape=mxgraph.aws3.cache_node;fillColor=#2E73B8;gradientColor=none;" vertex="1" parent="1">
          <mxGeometry x="590" y="290" width="20" height="20" as="geometry" />
        </mxCell>
        <mxCell id="KeggjCkR87lxun9Q_uiz-26" value="Identify" style="rounded=0;whiteSpace=wrap;html=1;" vertex="1" parent="1">
          <mxGeometry x="350" y="320" width="120" height="60" as="geometry" />
        </mxCell>
        <mxCell id="KeggjCkR87lxun9Q_uiz-25" value="" style="outlineConnect=0;dashed=0;verticalLabelPosition=bottom;verticalAlign=top;align=center;html=1;shape=mxgraph.aws3.sts_2;fillColor=#759C3E;gradientColor=none;" vertex="1" parent="1">
          <mxGeometry x="436" y="334" width="30" height="40" as="geometry" />
        </mxCell>
      </root>
    </mxGraphModel>
  </diagram>
</mxfile>
